# xmcd
#
# Track frame offsets: 
#        150
#        5246
#        23055
#        50055
#        63780
#        79830
#        96630
#        108630
#        115644
#        132276
#        146033
#        161170
#        174849
#        190018
#        207465
#        220495
#        230476
#        245430
#
# Disc length: 3316 seconds
#
# Revision: 0
# Processed by: cddbd v1.5.2PL0 Copyright (c) Steve Scherf et al.
# Submitted via: ExactAudioCopy v0.99pb4
#
DISCID=080cf212
DTITLE=JMar - Who I Am
DYEAR=2006
DGENRE=R&B
TTITLE0=Intro (Praise 2 Him)
TTITLE1=Alwayz My Boo
TTITLE2=Some People
TTITLE3=Cloudy Day
TTITLE4=What If I Had Nuthin
TTITLE5=Midnite Lovers
TTITLE6=Crush
TTITLE7=Skit (My Peeps)
TTITLE8=My Lady
TTITLE9=Ride 4 Me
TTITLE10=Grown Man
TTITLE11=You Got It
TTITLE12=V.I.P.
TTITLE13=Sick N Tired Of U
TTITLE14=Bring Ur Body 2 Me
TTITLE15=Who I Am
TTITLE16=My Everything
TTITLE17=Outro (Psalms)
EXTD=
EXTT0=
EXTT1=
EXTT2=
EXTT3=
EXTT4=
EXTT5=
EXTT6=
EXTT7=
EXTT8=
EXTT9=
EXTT10=
EXTT11=
EXTT12=
EXTT13=
EXTT14=
EXTT15=
EXTT16=
EXTT17=
PLAYORDER=
